<svg width="20" height="20" viewBox="0 0 24 24" fill="none" xmlns="http://www.w3.org/2000/svg">
<path d="M12.011 3C7.034 3 3 7.042 3 12.023c0 1.914.593 3.687 1.604 5.148L3 22l4.97-1.583a8.96 8.96 0 0 0 4.041.972c4.977 0 9.011-4.042 9.011-9.023C21.022 7.042 16.988 3 12.011 3z" fill="#25D366"/>
<path d="M17.507 14.307c-.122-.061-.722-.355-.833-.396-.112-.041-.193-.061-.274.061-.081.121-.314.396-.385.477-.071.08-.142.09-.264.03-.121-.06-1.12-.413-1.536-.784-.323-.288-.541-.643-.604-.754-.061-.111-.007-.17.048-.225.049-.05.111-.131.167-.197.056-.066.074-.111.111-.187.036-.076.018-.142-.009-.202-.027-.06-.274-.658-.376-.902-.099-.239-.199-.207-.274-.21-.071-.004-.152-.005-.233-.005-.082 0-.214.03-.326.152-.112.122-.428.417-.428 1.017 0 .6.438 1.18.498 1.261.061.082.863 1.318 2.09 1.85.292.126.519.202.697.258.293.093.56.08.77.048.235-.035.722-.295.823-.58.102-.285.102-.53.072-.58-.031-.051-.112-.081-.234-.142z" fill="white"/>
</svg>
